<?xml version="1.0" encoding="UTF-8" standalone="no"?>
<!DOCTYPE svg PUBLIC "-//W3C//DTD SVG 1.1//EN" "http://www.w3.org/Graphics/SVG/1.1/DTD/svg11.dtd">
<svg width="100%" height="100%" viewBox="0 0 512 512" version="1.1" xmlns="http://www.w3.org/2000/svg"
     xml:space="preserve"
     style="fill-rule:evenodd;clip-rule:evenodd;stroke-linecap:round;stroke-linejoin:round;stroke-miterlimit:1.5;">
    <g transform="matrix(0.583719,0,0,0.648468,-128.562,-742.216)">
        <rect x="629.605" y="1171.16" width="67.896" height="456.866" style="fill:rgb(0,121,159);"/>
    </g>
    <g transform="matrix(0.583719,0,0,0.524263,-89.3225,-518.903)">
        <rect x="629.605" y="1171.16" width="67.896" height="456.866" style="fill:rgb(255,237,0);"/>
    </g>
    <g transform="matrix(0.583719,0,0,0.470672,-49.6901,-384.535)">
        <rect x="629.605" y="1171.16" width="67.896" height="456.866" style="fill:rgb(227,136,147);"/>
    </g>
    <g transform="matrix(0.583719,0,0,0.277473,-10.0576,8.15099)">
        <rect x="629.605" y="1171.16" width="67.896" height="456.866" style="fill:rgb(95,164,119);"/>
    </g>
    <g transform="matrix(0.583719,0,0,0.190763,29.5749,184.283)">
        <rect x="629.605" y="1171.16" width="67.896" height="456.866" style="fill:rgb(238,134,21);"/>
    </g>
    <g transform="matrix(0.692981,0,0,0.692675,-190.769,-810.751)">
        <circle cx="733.412" cy="1561.88" r="34.315" style="fill:rgb(203,37,71);stroke:white;stroke-width:6.01px;"/>
    </g>
    <g transform="matrix(4.61682,0,0,4.29151,-77.7105,-2007.16)">
        <path d="M46.352,552.428C46.352,553.883 45.491,555.312 43.77,556.717C42.131,558.054 40.568,558.723 39.08,558.723C35.185,558.723 33.237,557.787 33.237,555.914C33.237,555.663 33.329,555.396 33.513,555.112C34.098,554.109 34.809,553.507 35.645,553.306C35.945,553.222 36.89,553.181 38.478,553.181C39.063,553.181 39.59,553.08 40.058,552.88C40.66,552.613 40.961,552.22 40.961,551.701C40.961,550.916 40.459,550.297 39.456,549.846C38.654,549.495 37.801,549.319 36.898,549.319C36.464,549.319 36.021,549.402 35.569,549.57C34.984,549.787 34.692,550.071 34.692,550.422C34.692,550.874 35.252,551.183 36.372,551.35C37.492,551.517 38.052,551.71 38.052,551.927C38.052,552.228 37.726,552.47 37.074,552.654C36.589,552.771 36.129,552.83 35.695,552.83C35.21,552.83 34.775,552.7 34.391,552.441C34.006,552.182 33.814,551.818 33.814,551.35C33.814,550.347 34.591,549.553 36.146,548.968L33.212,548.968L33.011,548.717C33.028,548.349 33.204,548.04 33.538,547.789C33.872,547.538 34.215,547.413 34.566,547.413L43.017,547.413L42.992,548.717L43.042,548.792C45.249,549.561 46.352,550.773 46.352,552.428ZM44.973,553.833C44.973,552.311 43.928,551.116 41.839,550.247C41.889,550.631 41.914,550.824 41.914,550.824C41.914,552.078 41.27,552.963 39.983,553.482C39.347,553.732 38.152,553.967 36.397,554.184C35.109,554.351 34.466,554.61 34.466,554.961C34.466,555.613 35.335,556.198 37.074,556.717C38.495,557.135 39.673,557.343 40.61,557.343C41.63,557.343 42.591,557.026 43.494,556.391C44.48,555.672 44.973,554.819 44.973,553.833ZM55.832,552.629C55.832,553.933 55.355,555.254 54.402,556.591C53.349,558.046 52.196,558.773 50.941,558.773C50.005,558.773 49.403,558.689 49.136,558.522C48.868,558.355 48.448,558.098 47.98,557.312C47.98,557.312 47.764,557.042 47.707,556.767C47.506,555.814 47.406,555.028 47.406,554.41C47.406,553.373 47.602,552.667 47.995,552.29C48.388,551.914 49.103,551.726 50.139,551.726C50.691,551.726 51.176,551.827 51.593,552.027C52.145,552.261 52.421,552.621 52.421,553.106C52.421,553.674 52.103,554.28 51.468,554.924C50.833,555.567 50.223,555.973 49.638,556.14C50.139,556.926 50.9,557.319 51.92,557.319C52.722,557.319 53.357,556.942 53.825,556.19C54.227,555.538 54.427,554.777 54.427,553.908C54.427,552.504 54.11,551.358 53.474,550.473C52.739,549.469 51.702,548.968 50.365,548.968L40.585,548.968L41.964,547.413L51.744,547.413C53.132,547.413 54.185,547.957 54.904,549.043C55.522,549.979 55.832,551.175 55.832,552.629ZM50.766,554.058C50.766,553.791 50.591,553.574 50.239,553.406C49.955,553.273 49.663,553.206 49.362,553.206C49.194,553.908 49.111,554.343 49.111,554.51C49.111,554.71 49.194,555.045 49.362,555.513C50.298,555.045 50.766,554.56 50.766,554.058ZM60.446,562.936C60.446,564.541 59.969,565.953 59.016,567.174C57.997,568.478 56.701,569.13 55.129,569.13C54.444,569.13 53.859,568.937 53.374,568.553C52.889,568.168 52.647,567.634 52.647,566.948C52.647,566.162 53.086,565.31 53.963,564.39C54.841,563.471 55.28,562.819 55.28,562.434C55.28,562.016 55.113,561.665 54.778,561.381C54.444,561.097 54.068,560.955 53.65,560.955C53.132,560.955 52.806,561.214 52.672,561.732C52.839,562.284 53.165,562.56 53.65,562.56C53.767,562.56 53.946,562.543 54.189,562.509C54.431,562.476 54.611,562.459 54.728,562.459C54.862,562.459 54.929,562.543 54.929,562.71C54.929,563.128 54.707,563.529 54.264,563.914C53.821,564.298 53.374,564.49 52.923,564.49C52.572,564.49 52.212,564.303 51.844,563.926C51.477,563.55 51.293,563.187 51.293,562.835C51.293,562.234 51.777,561.49 52.747,560.604C53.683,559.768 54.427,559.35 54.979,559.35C55.514,559.35 55.97,559.525 56.346,559.876C56.722,560.227 56.91,560.67 56.91,561.205C56.91,562.008 56.483,562.835 55.631,563.688C54.778,564.541 54.352,565.243 54.352,565.794C54.352,566.296 54.628,566.756 55.18,567.174C55.681,567.575 56.191,567.776 56.709,567.776C57.428,567.776 57.98,567.458 58.364,566.823C58.682,566.304 58.841,565.661 58.841,564.892C58.841,563.772 58.423,562.142 57.587,560.002C56.751,557.862 56.333,556.232 56.333,555.112C56.333,553.774 57.269,552.805 59.142,552.203L59.292,552.253C59.259,552.42 59.058,552.704 58.69,553.106C58.323,553.507 58.139,553.758 58.139,553.858C58.139,554.827 58.523,556.299 59.292,558.272C60.061,560.244 60.446,561.799 60.446,562.936ZM73.471,553.908C73.471,555.045 73.07,556.115 72.268,557.118C71.415,558.188 70.42,558.723 69.283,558.723C68.765,558.723 68.134,558.388 67.39,557.72C66.646,557.051 66.065,556.717 65.647,556.717C65.397,556.717 65.071,557.034 64.669,557.669C64.268,558.305 63.758,558.622 63.14,558.622C62.12,558.622 61.309,558.096 60.707,557.043C60.721,557.114 60.635,556.974 60.557,556.717C60.38,556.134 60.231,555.396 60.231,554.46C60.231,552.621 61,551.701 62.538,551.701C63.039,551.701 63.508,551.818 63.942,552.052C64.444,552.353 64.694,552.73 64.694,553.181C64.694,553.732 64.402,554.326 63.817,554.961C63.299,555.546 62.755,555.939 62.187,556.14C62.454,556.591 63.048,556.951 63.967,557.218C64.268,556.7 64.644,556.24 65.096,555.839C65.664,555.337 66.182,555.087 66.651,555.087C67.135,555.087 67.812,555.488 68.682,556.29C69.551,557.093 70.136,557.494 70.437,557.494C70.872,557.494 71.265,557.227 71.616,556.692C71.933,556.207 72.092,555.739 72.092,555.287C72.092,554 71.198,552.612 69.409,551.125C67.687,549.687 66.157,548.968 64.82,548.968L60.331,548.968L60.13,548.717C60.147,548.366 60.323,548.061 60.657,547.802C60.992,547.543 61.334,547.413 61.685,547.413L70.011,547.413C69.961,547.931 69.885,548.449 69.785,548.968L69.434,548.968C70.471,549.57 71.348,550.247 72.067,550.999C73.003,552.002 73.471,552.972 73.471,553.908ZM63.39,554.284C63.39,554 63.244,553.745 62.952,553.519C62.659,553.294 62.362,553.173 62.061,553.156C61.894,553.707 61.811,554.209 61.811,554.66C61.811,555.011 61.894,555.346 62.061,555.663C62.947,555.162 63.39,554.702 63.39,554.284ZM73.772,545.031C73.772,545.85 73.396,546.711 72.644,547.614C71.892,548.516 71.123,548.968 70.337,548.968L67.428,548.968C67.294,548.968 67.227,548.884 67.227,548.717C67.227,548.399 67.315,548.149 67.491,547.965C67.666,547.781 67.846,547.597 68.03,547.413L69.986,547.413C70.989,547.413 71.616,547.371 71.866,547.288C72.335,547.121 72.568,546.711 72.568,546.059C72.585,545.524 72.426,545.031 72.092,544.579C71.758,544.128 71.591,543.902 71.591,543.902C71.591,543.635 71.729,543.392 72.004,543.175C72.28,542.958 72.56,542.849 72.844,542.849C73.463,542.849 73.772,543.576 73.772,545.031ZM81.27,553.156C81.27,554.543 80.819,555.797 79.916,556.917C78.98,558.121 77.835,558.723 76.481,558.723C73.605,558.723 72.15,557.101 72.117,553.858L73.359,553.107C73.359,554.695 73.714,555.229 74.148,556.015C74.733,557.051 75.762,557.569 77.233,557.569C77.968,557.569 78.624,557.268 79.201,556.667C79.778,556.065 80.066,555.388 80.066,554.635C80.066,553.699 79.674,552.738 78.888,551.751C78.436,551.166 77.726,550.464 76.756,549.645C75.971,549.01 75.578,548.617 75.578,548.466C75.578,548.216 75.736,547.981 76.054,547.764C76.322,547.564 76.597,547.463 76.882,547.463C77.868,547.463 78.854,548.174 79.841,549.595C80.794,550.916 81.27,552.102 81.27,553.156ZM70.506,564.366L61.052,564.366C60.918,564.366 60.852,564.282 60.852,564.115C60.852,563.747 61.015,563.438 61.34,563.187C61.666,562.936 62.005,562.811 62.356,562.811L70.08,562.811C70.264,563.229 70.406,563.747 70.506,564.366ZM68.023,566.246C68.023,566.681 67.873,567.049 67.572,567.35C67.271,567.651 66.903,567.801 66.469,567.801C66.034,567.801 65.67,567.651 65.378,567.35C65.085,567.049 64.939,566.681 64.939,566.246C64.939,565.812 65.085,565.444 65.378,565.143C65.67,564.842 66.034,564.692 66.469,564.692C66.903,564.692 67.271,564.842 67.572,565.143C67.873,565.444 68.023,565.812 68.023,566.246ZM73.942,569.281C73.942,570.418 73.541,571.487 72.738,572.491C71.902,573.56 70.916,574.096 69.779,574.096C67.188,574.096 64.663,573.05 62.206,570.961L62.206,572.942C62.206,573.611 62.574,574.313 63.309,575.048C64.045,575.784 64.412,576.177 64.412,576.227C64.412,576.461 64.258,576.695 63.949,576.929C63.639,577.163 63.359,577.28 63.108,577.28C62.657,577.28 62.16,576.912 61.616,576.177C61.073,575.441 60.801,574.831 60.801,574.346C60.801,574.079 60.793,572.223 60.776,568.779C60.977,567.575 61.361,566.949 61.93,566.898C62.047,566.915 62.565,567.584 63.485,568.904C64.036,569.69 64.789,570.376 65.742,570.961C66.427,571.396 67.238,571.78 68.174,572.114C69.194,572.465 70.063,572.641 70.782,572.641C71.284,572.641 71.706,572.445 72.048,572.052C72.391,571.659 72.563,571.203 72.563,570.685C72.563,570.05 72.295,569.348 71.76,568.578C71.492,568.211 70.983,567.625 70.23,566.823C69.695,566.238 69.428,565.862 69.428,565.695C69.428,565.21 69.779,564.967 70.481,564.967C71.15,564.967 71.894,565.507 72.713,566.585C73.532,567.663 73.942,568.562 73.942,569.281ZM74.243,560.429C74.243,561.248 73.867,562.109 73.114,563.012C72.362,563.914 71.593,564.366 70.807,564.366L67.898,564.366C67.764,564.366 67.697,564.282 67.697,564.115C67.697,563.797 67.785,563.546 67.961,563.362C68.136,563.178 68.316,562.995 68.5,562.811L70.456,562.811C71.459,562.811 72.086,562.769 72.337,562.686C72.805,562.518 73.039,562.109 73.039,561.457C73.056,560.922 72.897,560.429 72.562,559.977C72.228,559.526 72.061,559.3 72.061,559.3C72.061,559.033 72.199,558.79 72.475,558.573C72.751,558.355 73.031,558.247 73.315,558.247C73.933,558.247 74.243,558.974 74.243,560.429ZM75.346,572.716C75.346,573.435 75.024,574.121 74.38,574.772C73.737,575.424 73.056,575.75 72.337,575.75C73.223,576.051 73.808,576.302 74.092,576.503C74.594,576.871 74.844,577.406 74.844,578.108C74.844,578.977 74.543,579.788 73.942,580.54C73.306,581.343 72.571,581.744 71.735,581.744C71.333,581.744 70.861,581.493 70.318,580.992C69.775,580.49 69.336,580.239 69.001,580.239C68.817,580.239 68.571,580.477 68.262,580.954C67.952,581.43 67.572,581.669 67.121,581.669C66.385,581.669 65.775,581.268 65.29,580.465L65.064,580.891C65.115,580.975 65.357,581.167 65.791,581.468C66.126,581.719 66.293,581.919 66.293,582.07C66.293,582.27 66.184,582.521 65.967,582.822C65.733,582.906 65.507,582.956 65.29,582.973C64.521,582.588 64.136,582.087 64.136,581.468C64.538,580.866 64.889,580.457 65.19,580.239C65.022,579.805 64.939,579.236 64.939,578.534C64.939,577.163 65.516,576.478 66.669,576.478C67.739,576.478 68.274,576.845 68.274,577.581C68.274,577.982 68.065,578.421 67.647,578.898C67.229,579.374 66.811,579.679 66.393,579.813C66.728,580.197 67.179,580.465 67.748,580.616C68.349,579.545 69.018,579.011 69.754,579.011C70.105,579.011 70.623,579.311 71.309,579.913C71.994,580.515 72.428,580.816 72.612,580.816C72.93,580.816 73.214,580.616 73.465,580.214C73.699,579.863 73.816,579.512 73.816,579.161C73.816,578.242 73.323,577.431 72.337,576.728C71.417,576.076 70.473,575.75 69.503,575.75L67.246,575.75L67.095,575.575C67.263,574.923 67.931,574.597 69.102,574.597C69.486,574.597 70.088,574.639 70.907,574.722C71.726,574.806 72.311,574.848 72.663,574.848C73.749,574.848 74.293,574.513 74.293,573.845C74.293,573.393 74.217,573.042 74.067,572.791C73.749,572.307 73.582,572.031 73.565,571.964C73.682,571.446 73.992,571.186 74.493,571.186C74.778,571.186 75.003,571.379 75.17,571.763C75.287,572.081 75.346,572.398 75.346,572.716ZM67.296,578.434C67.296,577.916 66.962,577.631 66.293,577.581C66.176,578.016 66.117,578.359 66.117,578.609C66.117,578.96 66.176,579.236 66.293,579.437C66.962,579.036 67.296,578.701 67.296,578.434ZM88.135,567.726C88.135,569.297 87.308,570.769 85.652,572.139C84.064,573.46 82.468,574.121 80.863,574.121C79.308,574.121 77.971,573.686 76.85,572.817C75.613,571.864 74.995,570.635 74.995,569.13C74.995,568.378 75.379,567.492 76.148,566.472C76.817,565.603 77.536,564.901 78.305,564.366L75.199,564.366L74.995,564.115C75.011,563.764 75.187,563.459 75.525,563.199C75.86,562.94 76.207,562.811 76.558,562.811L84.323,562.811L84.323,563.112C85.226,563.112 86.095,563.664 86.931,564.767C87.734,565.803 88.135,566.79 88.135,567.726ZM86.329,569.506C86.329,568.319 85.728,567.166 84.524,566.046C83.32,564.925 82.108,564.366 80.888,564.366C79.734,564.366 78.748,564.7 77.929,565.369C77.059,566.071 76.625,566.99 76.625,568.127C76.625,569.281 77.277,570.359 78.581,571.362C79.801,572.281 81.021,572.741 82.242,572.741C83.278,572.741 84.189,572.474 84.975,571.939C85.878,571.337 86.329,570.526 86.329,569.506ZM88.436,560.429C88.436,561.248 88.06,562.109 87.308,563.012C86.555,563.914 85.786,564.366 85,564.366L82.092,564.366C81.958,564.366 81.891,564.282 81.891,564.115C81.891,563.797 81.979,563.546 82.154,563.362C82.33,563.178 82.509,562.995 82.693,562.811L84.649,562.811C85.652,562.811 86.279,562.769 86.53,562.686C86.998,562.518 87.232,562.109 87.232,561.457C87.249,560.922 87.09,560.429 86.756,559.977C86.421,559.526 86.254,559.3 86.254,559.3C86.254,559.033 86.392,558.79 86.668,558.573C86.944,558.355 87.224,558.247 87.508,558.247C88.127,558.247 88.436,558.974 88.436,560.429"
              style="fill:rgb(22,51,255);fill-rule:nonzero;"/>
    </g>
</svg>
