<?xml version="1.0" encoding="UTF-8" standalone="no"?>
<!DOCTYPE svg PUBLIC "-//W3C//DTD SVG 1.1//EN" "http://www.w3.org/Graphics/SVG/1.1/DTD/svg11.dtd">
<svg width="100%" height="100%" viewBox="0 0 875 154" version="1.1" xmlns="http://www.w3.org/2000/svg" xmlns:xlink="http://www.w3.org/1999/xlink" xml:space="preserve" xmlns:serif="http://www.serif.com/" style="fill-rule:evenodd;clip-rule:evenodd;stroke-linejoin:round;stroke-miterlimit:2;">
    <g transform="matrix(154.462,0,0,154.462,-1.10589,115.161)">
        <path d="M0.223,-0.498L0.248,-0.498C0.342,-0.497 0.4,-0.472 0.42,-0.424C0.424,-0.415 0.425,-0.405 0.425,-0.396L0.425,-0.357C0.425,-0.355 0.424,-0.354 0.423,-0.354L0.336,-0.354C0.334,-0.354 0.333,-0.355 0.333,-0.357L0.333,-0.404C0.333,-0.435 0.315,-0.457 0.279,-0.469C0.266,-0.472 0.251,-0.473 0.236,-0.474C0.191,-0.474 0.161,-0.46 0.146,-0.432C0.142,-0.422 0.139,-0.408 0.139,-0.39L0.139,-0.37C0.139,-0.313 0.164,-0.279 0.213,-0.267C0.283,-0.262 0.327,-0.257 0.347,-0.251C0.399,-0.238 0.425,-0.219 0.425,-0.195L0.425,-0.098C0.425,-0.057 0.394,-0.027 0.333,-0.01C0.306,-0.003 0.278,0 0.251,0L0.226,0C0.132,-0.001 0.075,-0.026 0.054,-0.074C0.05,-0.083 0.049,-0.093 0.049,-0.103L0.049,-0.141C0.049,-0.143 0.05,-0.144 0.051,-0.144L0.137,-0.144C0.138,-0.143 0.139,-0.142 0.139,-0.141L0.139,-0.122C0.139,-0.079 0.148,-0.054 0.165,-0.044C0.182,-0.031 0.206,-0.024 0.238,-0.024C0.283,-0.024 0.313,-0.038 0.328,-0.066C0.333,-0.076 0.335,-0.09 0.335,-0.108L0.335,-0.128C0.335,-0.185 0.31,-0.219 0.261,-0.231C0.191,-0.236 0.147,-0.241 0.127,-0.247C0.098,-0.254 0.077,-0.263 0.064,-0.275C0.054,-0.284 0.049,-0.293 0.049,-0.303L0.049,-0.4C0.049,-0.441 0.08,-0.471 0.142,-0.488C0.169,-0.495 0.196,-0.498 0.223,-0.498Z" style="fill:rgb(22,51,255);fill-rule:nonzero;"/>
    </g>
    <g transform="matrix(154.462,0,0,154.462,65.9495,115.161)">
        <path d="M0.051,-0.674L0.102,-0.674C0.12,-0.674 0.133,-0.661 0.142,-0.637L0.142,-0.491C0.176,-0.497 0.21,-0.5 0.241,-0.5C0.342,-0.5 0.406,-0.477 0.433,-0.431C0.438,-0.416 0.441,-0.405 0.441,-0.396L0.441,-0.039C0.441,-0.022 0.429,-0.009 0.405,0L0.35,0C0.348,0 0.347,-0.001 0.347,-0.002L0.347,-0.134C0.347,-0.197 0.347,-0.267 0.348,-0.344C0.347,-0.356 0.347,-0.376 0.347,-0.405C0.347,-0.417 0.34,-0.431 0.327,-0.446C0.307,-0.464 0.278,-0.473 0.241,-0.473C0.188,-0.473 0.155,-0.454 0.144,-0.417C0.142,-0.405 0.142,-0.394 0.142,-0.385L0.142,-0.044C0.142,-0.022 0.133,-0.008 0.116,-0.002C0.113,-0.001 0.109,0 0.103,0L0.051,0C0.05,0 0.049,-0.001 0.049,-0.002L0.049,-0.671C0.049,-0.673 0.05,-0.674 0.051,-0.674Z" style="fill:rgb(22,51,255);fill-rule:nonzero;"/>
    </g>
    <g transform="matrix(154.462,0,0,154.462,143.111,115.161)">
        <path d="M0.051,-0.5L0.102,-0.5C0.118,-0.5 0.132,-0.489 0.143,-0.468C0.145,-0.464 0.146,-0.459 0.146,-0.452L0.146,-0.112C0.146,-0.074 0.159,-0.049 0.187,-0.038C0.204,-0.03 0.221,-0.026 0.237,-0.026L0.254,-0.026C0.295,-0.026 0.324,-0.041 0.339,-0.07C0.344,-0.08 0.346,-0.092 0.346,-0.107L0.346,-0.236C0.346,-0.294 0.346,-0.381 0.345,-0.499L0.348,-0.5L0.399,-0.5C0.416,-0.5 0.428,-0.489 0.437,-0.468C0.439,-0.464 0.439,-0.459 0.439,-0.452L0.439,0.138C0.439,0.156 0.429,0.169 0.407,0.177L0.349,0.177C0.347,0.177 0.346,0.176 0.346,0.174L0.346,-0.008C0.314,-0.002 0.284,0.001 0.256,0.001L0.234,0.001C0.142,0.001 0.083,-0.023 0.056,-0.071C0.051,-0.084 0.049,-0.094 0.049,-0.103L0.049,-0.497C0.049,-0.499 0.05,-0.5 0.051,-0.5Z" style="fill:rgb(22,51,255);fill-rule:nonzero;"/>
    </g>
    <g transform="matrix(154.462,0,0,154.462,219.217,115.161)">
        <path d="M0.225,-0.498L0.259,-0.498C0.322,-0.498 0.374,-0.478 0.414,-0.438C0.425,-0.422 0.431,-0.406 0.431,-0.39L0.431,-0.089C0.431,-0.054 0.437,-0.025 0.449,-0.002L0.445,0L0.387,0C0.383,0 0.375,-0.015 0.362,-0.046C0.302,-0.015 0.249,0 0.202,0C0.143,0 0.098,-0.02 0.066,-0.059C0.055,-0.075 0.049,-0.091 0.049,-0.107L0.049,-0.396C0.049,-0.428 0.076,-0.456 0.129,-0.48C0.162,-0.492 0.194,-0.498 0.225,-0.498ZM0.141,-0.123C0.141,-0.082 0.157,-0.055 0.189,-0.042C0.201,-0.038 0.217,-0.035 0.236,-0.032C0.303,-0.038 0.337,-0.064 0.337,-0.108L0.337,-0.395C0.337,-0.433 0.311,-0.458 0.259,-0.468C0.248,-0.469 0.242,-0.47 0.239,-0.47C0.185,-0.47 0.152,-0.446 0.141,-0.398L0.141,-0.123Z" style="fill:rgb(22,51,255);fill-rule:nonzero;"/>
    </g>
    <g transform="matrix(154.462,0,0,154.462,289.968,115.161)">
        <path d="M0.227,-0.498L0.256,-0.498C0.304,-0.498 0.348,-0.489 0.389,-0.47C0.425,-0.489 0.469,-0.498 0.52,-0.498L0.548,-0.498C0.628,-0.498 0.683,-0.478 0.713,-0.439C0.723,-0.425 0.728,-0.409 0.728,-0.389L0.728,-0.037C0.728,-0.021 0.715,-0.008 0.691,0L0.635,0C0.633,0 0.632,-0.001 0.632,-0.002L0.632,-0.397C0.632,-0.433 0.613,-0.456 0.576,-0.467C0.562,-0.47 0.55,-0.472 0.54,-0.472L0.531,-0.472C0.484,-0.472 0.454,-0.456 0.441,-0.423C0.439,-0.417 0.437,-0.406 0.435,-0.39C0.436,-0.342 0.437,-0.305 0.437,-0.277L0.437,-0.044C0.437,-0.023 0.425,-0.008 0.401,0L0.342,0C0.341,0 0.34,-0.001 0.34,-0.002L0.34,-0.39C0.34,-0.444 0.308,-0.472 0.244,-0.472L0.236,-0.472C0.188,-0.472 0.157,-0.453 0.145,-0.416C0.143,-0.404 0.143,-0.392 0.143,-0.38L0.143,-0.04C0.143,-0.021 0.131,-0.008 0.109,0L0.052,0L0.05,-0.001C0.049,-0.022 0.049,-0.039 0.049,-0.052L0.049,-0.397C0.049,-0.441 0.083,-0.472 0.15,-0.49C0.178,-0.495 0.203,-0.498 0.227,-0.498Z" style="fill:rgb(22,51,255);fill-rule:nonzero;"/>
    </g>
    <g transform="matrix(154.462,0,0,154.462,410.573,115.161)">
        <path d="M0.225,-0.498L0.259,-0.498C0.322,-0.498 0.374,-0.478 0.414,-0.438C0.425,-0.422 0.431,-0.406 0.431,-0.39L0.431,-0.089C0.431,-0.054 0.437,-0.025 0.449,-0.002L0.445,0L0.387,0C0.383,0 0.375,-0.015 0.362,-0.046C0.302,-0.015 0.249,0 0.202,0C0.143,0 0.098,-0.02 0.066,-0.059C0.055,-0.075 0.049,-0.091 0.049,-0.107L0.049,-0.396C0.049,-0.428 0.076,-0.456 0.129,-0.48C0.162,-0.492 0.194,-0.498 0.225,-0.498ZM0.141,-0.123C0.141,-0.082 0.157,-0.055 0.189,-0.042C0.201,-0.038 0.217,-0.035 0.236,-0.032C0.303,-0.038 0.337,-0.064 0.337,-0.108L0.337,-0.395C0.337,-0.433 0.311,-0.458 0.259,-0.468C0.248,-0.469 0.242,-0.47 0.239,-0.47C0.185,-0.47 0.152,-0.446 0.141,-0.398L0.141,-0.123Z" style="fill:rgb(22,51,255);fill-rule:nonzero;"/>
    </g>
    <g transform="matrix(154.462,0,0,154.462,481.324,115.161)">
        <path d="M0.223,-0.498L0.248,-0.498C0.342,-0.497 0.4,-0.472 0.42,-0.424C0.424,-0.415 0.425,-0.405 0.425,-0.396L0.425,-0.357C0.425,-0.355 0.424,-0.354 0.423,-0.354L0.336,-0.354C0.334,-0.354 0.333,-0.355 0.333,-0.357L0.333,-0.404C0.333,-0.435 0.315,-0.457 0.279,-0.469C0.266,-0.472 0.251,-0.473 0.236,-0.474C0.191,-0.474 0.161,-0.46 0.146,-0.432C0.142,-0.422 0.139,-0.408 0.139,-0.39L0.139,-0.37C0.139,-0.313 0.164,-0.279 0.213,-0.267C0.283,-0.262 0.327,-0.257 0.347,-0.251C0.399,-0.238 0.425,-0.219 0.425,-0.195L0.425,-0.098C0.425,-0.057 0.394,-0.027 0.333,-0.01C0.306,-0.003 0.278,0 0.251,0L0.226,0C0.132,-0.001 0.075,-0.026 0.054,-0.074C0.05,-0.083 0.049,-0.093 0.049,-0.103L0.049,-0.141C0.049,-0.143 0.05,-0.144 0.051,-0.144L0.137,-0.144C0.138,-0.143 0.139,-0.142 0.139,-0.141L0.139,-0.122C0.139,-0.079 0.148,-0.054 0.165,-0.044C0.182,-0.031 0.206,-0.024 0.238,-0.024C0.283,-0.024 0.313,-0.038 0.328,-0.066C0.333,-0.076 0.335,-0.09 0.335,-0.108L0.335,-0.128C0.335,-0.185 0.31,-0.219 0.261,-0.231C0.191,-0.236 0.147,-0.241 0.127,-0.247C0.098,-0.254 0.077,-0.263 0.064,-0.275C0.054,-0.284 0.049,-0.293 0.049,-0.303L0.049,-0.4C0.049,-0.441 0.08,-0.471 0.142,-0.488C0.169,-0.495 0.196,-0.498 0.223,-0.498Z" style="fill:rgb(22,51,255);fill-rule:nonzero;"/>
    </g>
    <g transform="matrix(154.462,0,0,154.462,555.243,115.161)">
        <path d="M0.227,0C0.203,0 0.178,-0.003 0.15,-0.008C0.083,-0.026 0.049,-0.057 0.049,-0.101L0.049,-0.446C0.049,-0.459 0.049,-0.476 0.05,-0.497L0.052,-0.498L0.109,-0.498C0.131,-0.49 0.143,-0.477 0.143,-0.458L0.143,-0.118C0.143,-0.106 0.143,-0.094 0.145,-0.082C0.157,-0.045 0.188,-0.026 0.236,-0.026L0.244,-0.026C0.308,-0.026 0.34,-0.054 0.34,-0.108L0.34,-0.496C0.34,-0.497 0.341,-0.498 0.342,-0.498L0.401,-0.498C0.425,-0.49 0.437,-0.475 0.437,-0.454L0.437,-0.221C0.437,-0.194 0.436,-0.156 0.435,-0.108C0.437,-0.092 0.439,-0.081 0.441,-0.075C0.454,-0.042 0.484,-0.026 0.531,-0.026L0.54,-0.026C0.55,-0.026 0.562,-0.028 0.576,-0.031C0.613,-0.042 0.632,-0.065 0.632,-0.101L0.632,-0.496C0.632,-0.497 0.633,-0.498 0.635,-0.498L0.691,-0.498C0.715,-0.49 0.728,-0.478 0.728,-0.461L0.728,-0.109C0.728,-0.09 0.723,-0.073 0.713,-0.059C0.683,-0.02 0.628,0 0.548,0L0.52,0C0.469,0 0.425,-0.009 0.389,-0.028C0.348,-0.009 0.304,0 0.256,0L0.227,0Z" style="fill:rgb(22,51,255);fill-rule:nonzero;"/>
    </g>
    <g transform="matrix(154.462,0,0,154.462,675.847,115.161)">
        <path d="M0.225,-0.498L0.259,-0.498C0.322,-0.498 0.374,-0.478 0.414,-0.438C0.425,-0.422 0.431,-0.406 0.431,-0.39L0.431,-0.089C0.431,-0.054 0.437,-0.025 0.449,-0.002L0.445,0L0.387,0C0.383,0 0.375,-0.015 0.362,-0.046C0.302,-0.015 0.249,0 0.202,0C0.143,0 0.098,-0.02 0.066,-0.059C0.055,-0.075 0.049,-0.091 0.049,-0.107L0.049,-0.396C0.049,-0.428 0.076,-0.456 0.129,-0.48C0.162,-0.492 0.194,-0.498 0.225,-0.498ZM0.141,-0.123C0.141,-0.082 0.157,-0.055 0.189,-0.042C0.201,-0.038 0.217,-0.035 0.236,-0.032C0.303,-0.038 0.337,-0.064 0.337,-0.108L0.337,-0.395C0.337,-0.433 0.311,-0.458 0.259,-0.468C0.248,-0.469 0.242,-0.47 0.239,-0.47C0.185,-0.47 0.152,-0.446 0.141,-0.398L0.141,-0.123Z" style="fill:rgb(22,51,255);fill-rule:nonzero;"/>
    </g>
    <g transform="matrix(154.462,0,0,154.462,746.598,115.161)">
        <path d="M0.246,-0.498L0.331,-0.498C0.352,-0.498 0.367,-0.493 0.374,-0.484L0.374,-0.475L0.373,-0.473L0.371,-0.474C0.343,-0.476 0.32,-0.477 0.302,-0.477L0.289,-0.477C0.192,-0.477 0.144,-0.449 0.144,-0.394L0.144,-0.244C0.144,-0.188 0.143,-0.107 0.143,-0.001L0.14,0L0.086,0C0.07,0 0.058,-0.011 0.049,-0.034L0.049,-0.383C0.049,-0.432 0.071,-0.464 0.115,-0.479C0.147,-0.492 0.191,-0.498 0.246,-0.498Z" style="fill:rgb(22,51,255);fill-rule:nonzero;"/>
    </g>
    <g transform="matrix(154.462,0,0,154.462,798.192,115.161)">
        <path d="M0.225,-0.498L0.259,-0.498C0.322,-0.498 0.374,-0.478 0.414,-0.438C0.425,-0.422 0.431,-0.406 0.431,-0.39L0.431,-0.089C0.431,-0.054 0.437,-0.025 0.449,-0.002L0.445,0L0.387,0C0.383,0 0.375,-0.015 0.362,-0.046C0.302,-0.015 0.249,0 0.202,0C0.143,0 0.098,-0.02 0.066,-0.059C0.055,-0.075 0.049,-0.091 0.049,-0.107L0.049,-0.396C0.049,-0.428 0.076,-0.456 0.129,-0.48C0.162,-0.492 0.194,-0.498 0.225,-0.498ZM0.141,-0.123C0.141,-0.082 0.157,-0.055 0.189,-0.042C0.201,-0.038 0.217,-0.035 0.236,-0.032C0.303,-0.038 0.337,-0.064 0.337,-0.108L0.337,-0.395C0.337,-0.433 0.311,-0.458 0.259,-0.468C0.248,-0.469 0.242,-0.47 0.239,-0.47C0.185,-0.47 0.152,-0.446 0.141,-0.398L0.141,-0.123Z" style="fill:rgb(22,51,255);fill-rule:nonzero;"/>
    </g>
    <g transform="matrix(154.462,0,0,154.462,221.281,132.178)">
        <rect x="0.042" y="-0.783" width="0.416" height="0.072" style="fill:rgb(22,51,255);fill-rule:nonzero;"/>
    </g>
</svg>
